<?xml version="1.0" encoding="utf-8"?>
<!-- Generator: Adobe Illustrator 24.1.0, SVG Export Plug-In . SVG Version: 6.00 Build 0)  -->
<svg version="1.1" id="Layer_1" xmlns="http://www.w3.org/2000/svg" xmlns:xlink="http://www.w3.org/1999/xlink" x="0px" y="0px"
	 viewBox="0 0 249.37 134.31" style="enable-background:new 0 0 249.37 134.31;" xml:space="preserve">
<style type="text/css">
	.st0{fill:#FC153B;}
	.st1{fill:#FFFFFF;}
	.st2{fill:#FFDE14;}
	.st3{fill:#FDBC2C;}
</style>
<g id="Layer_2">
	<g>
		<rect class="st0" width="249.37" height="134.31"/>
		<path class="st1" d="M204.75,80.53c-0.21,0-0.38-0.17-0.38-0.38V30.49c0-0.24-0.25-0.4-0.47-0.3c0,0-3.43,2.38-7.14,5.46
			c-3.7,3.09-5.75,5.28-5.75,5.28s-0.49,0.45-0.49,0.78v37.61c0,4.16,1.06,7.39,3.17,9.58c2.1,2.19,6.28,3.3,10.8,3.3h5.42
			c0.25,0,0.46-0.2,0.46-0.46V80.99c0-0.25-0.2-0.46-0.46-0.46H204.75z"/>
		<path class="st2" d="M187.32,43.55c-0.12-0.16-0.31-0.26-0.51-0.26c-4.24-0.02-8.48-0.04-12.71-0.05c-0.27,0-0.51,0.18-0.59,0.44
			c-1.8,6.43-3.66,12.86-5.56,19.29c-1.4,5.47-2.82,10.94-4.27,16.41c-1.38-5.46-2.78-10.93-4.2-16.4
			c-1.99-6.45-4.01-12.91-6.03-19.37c-0.08-0.26-0.32-0.44-0.59-0.44c-2.1,7.8-4.24,15.6-6.41,23.41
			c2.77,8.44,5.51,16.87,8.19,25.29c0.08,0.25,0.32,0.43,0.58,0.43c5.33-0.01,10.66-0.02,15.98-0.04c0.27,0,0.51-0.17,0.59-0.43
			c5.46-15.95,10.77-31.87,15.63-47.74C187.48,43.92,187.44,43.71,187.32,43.55"/>
		<path class="st1" d="M152.85,43.19c-0.3,0-0.6,0-0.9,0h0c-4.12-0.01-8.24-0.01-12.36-0.01h-0.08c-0.29,0-0.53,0.2-0.6,0.48
			c-1.53,6.45-3.08,12.9-4.63,19.35c-0.97,4.3-1.93,8.6-2.9,12.89c-1.16-4.3-2.31-8.6-3.47-12.91c-1.85-6.45-3.7-12.91-5.52-19.36
			c-0.07-0.27-0.32-0.45-0.59-0.45c-4.09,0-8.17,0.01-12.26,0.02c-0.28,0-0.52,0.19-0.6,0.45c-1.88,6.45-3.75,12.89-5.59,19.33
			c-1.14,4.29-2.26,8.58-3.37,12.87c-0.98-4.28-1.95-8.56-2.91-12.84c-1.53-6.44-3.03-12.87-4.47-19.3
			c-0.06-0.28-0.31-0.47-0.59-0.47c-4.33,0.01-8.66,0.03-12.99,0.05c-0.2,0-0.38,0.09-0.5,0.25s-0.16,0.35-0.11,0.54
			c4.11,15.87,8.65,31.79,13.36,47.73c0.08,0.27,0.33,0.45,0.6,0.46c4.6,0.02,9.2,0.03,13.8,0.04c0.27,0,0.52-0.18,0.59-0.45
			c1.87-6.74,3.78-13.49,5.72-20.24c0.94-3.56,1.89-7.02,2.83-10.58c0.96,3.56,1.93,7.01,2.9,10.58c1.95,6.75,3.92,13.51,5.88,20.27
			c0.08,0.27,0.32,0.45,0.6,0.45c4.69,0,9.38,0,14.08,0c0.28,0,0.52-0.19,0.6-0.46c2.34-8.45,4.7-16.91,7.03-25.36
			c0.01,0.02,0.02,0.05,0.02,0.08C148.61,58.79,150.76,50.99,152.85,43.19L152.85,43.19"/>
		<path class="st3" d="M154.66,47.72l-7.01,22.8l-1.28-3.92l6.49-23.36c0,0,0.44,0.03,0.58,0.49
			C153.58,44.19,154.66,47.72,154.66,47.72"/>
		<path class="st1" d="M77.71,76.15c-0.21-4.98-2.07-10.51-13.92-14.32c-0.63-0.21-1.26-0.41-1.86-0.6
			c-4.22-1.34-8.31-2.42-8.4-4.95c-0.09-2.33,2.49-3.65,5.95-3.78c2.98-0.11,6.14,0.97,9.89,3.39c0.34,0.22,0.79,0.13,1.02-0.2
			c1.9-2.71,3.81-5.43,5.75-8.18c0.12-0.17,0.17-0.38,0.14-0.58c-0.03-0.2-0.14-0.37-0.31-0.48c-3.57-2.35-9.28-5.34-17.25-5.07
			c-11.49,0.36-19.65,6.46-19.24,15.83c0.27,6.5,5.62,10.82,14.47,13.83c0.56,0.2,1.12,0.39,1.67,0.57
			c4.38,1.49,8.26,2.89,8.36,5.56c0.09,2.52-2.05,4.06-5.97,4.19c-0.16,0-0.32,0.01-0.48,0.01c-3.65,0-7.38-1.34-11.67-4.25
			C45.68,77,45.47,76.96,45.28,77c-0.19,0.04-0.36,0.15-0.47,0.32c-1.9,2.84-3.82,5.7-5.76,8.59c-0.23,0.35-0.17,0.8,0.16,1.03
			c4.91,3.5,11.91,5.58,17.99,5.58c0.26,0,0.52-0.01,0.79-0.01C70.49,92.13,78.14,85.98,77.71,76.15"/>
		<path class="st1" d="M218.49,84.01l-0.4-0.9h-0.53v0.9h-0.44v-2.39h1.01c0.57,0,0.83,0.36,0.83,0.74c0,0.32-0.18,0.57-0.44,0.67
			l0.44,0.98H218.49z M218.13,82h-0.57v0.71h0.58c0.25,0,0.39-0.13,0.39-0.35C218.53,82.17,218.38,82,218.13,82"/>
		<path class="st1" d="M217.97,85.26c-1.35,0-2.45-1.1-2.45-2.45c0-1.35,1.1-2.45,2.45-2.45c1.35,0,2.45,1.1,2.45,2.45
			C220.42,84.16,219.32,85.26,217.97,85.26 M217.97,80.81c-1.1,0-2,0.9-2,2c0,1.1,0.9,2,2,2c1.1,0,2-0.9,2-2
			C219.97,81.71,219.07,80.81,217.97,80.81"/>
	</g>
</g>
</svg>
